<svg class="icon" viewBox="0 0 1024 1024" xmlns="http://www.w3.org/2000/svg" width="64" height="64"><defs><style/></defs><path d="M984.166 326.246v-2.457a27.853 27.853 0 0 0-.819-3.891v-1.332L908.39 98.714A70.144 70.144 0 0 0 841.933 51.2H182.067a70.144 70.144 0 0 0-66.457 47.616l-74.65 219.75v1.332a27.853 27.853 0 0 0-.82 3.89v621.057A28.058 28.058 0 0 0 67.687 972.8h888.628a28.058 28.058 0 0 0 28.057-28.058V327.68s-.102-1.024-.205-1.434zm-815.41-209.612a14.029 14.029 0 0 1 13.311-9.524h659.866a14.029 14.029 0 0 1 13.312 9.524l61.952 182.784H106.803zm759.5 800.153H95.744V355.635h832.512z"/><path d="M399.36 756.531a28.058 28.058 0 1 0 39.526-39.731l-52.53-52.531h317.44a28.058 28.058 0 1 0 0-56.115H389.12l52.531-52.634a28.058 28.058 0 0 0-39.629-39.629l-102.4 102.4a28.058 28.058 0 0 0 0 39.629z"/></svg>