<svg class="icon" viewBox="0 0 1024 1024" xmlns="http://www.w3.org/2000/svg" width="64" height="64"><defs><style/></defs><path d="M962.929 602.189c-9.099 48.425-43.423 80.962-85.417 80.962h-4.813a54.666 54.666 0 0 0-54.067 55.081 49.74 49.74 0 0 0 2.457 12.97q1.086 3.696 2.504 7.27a100.536 100.536 0 0 1-34.785 122.777l-3.072 1.997c-.548.358-1.116.702-1.69 1.024L679.9 942.638a28.672 28.672 0 0 1-2.56 1.229l-1.024.512a100.654 100.654 0 0 1-40.617 8.35 105.016 105.016 0 0 1-75.812-31.769 141.89 141.89 0 0 0-33.756-25.723 26.399 26.399 0 0 0-12.288-3.072 23.383 23.383 0 0 0-12.17 3.333 145.89 145.89 0 0 0-33.761 26.112 104.74 104.74 0 0 1-76.319 32.333 99.794 99.794 0 0 1-39.895-8.1l-.876-.353-3.22-1.536q-.88-.43-1.74-.922l-107.828-59.95a28.38 28.38 0 0 1-2.56-1.643l-1.024-.717a100.521 100.521 0 0 1-34.017-122.46q1.33-3.456 2.35-7.02a50.043 50.043 0 0 0 2.509-13.02 54.666 54.666 0 0 0-54.047-55.055h-4.347c-42.307 0-76.8-32.538-85.888-80.963a531.185 531.185 0 0 1-9.41-90.501 520.847 520.847 0 0 1 9.461-90.542c9.057-48.42 43.582-80.963 85.985-80.963h4.199a54.661 54.661 0 0 0 54.067-55.08 80.732 80.732 0 0 0-4.961-20.24 100.634 100.634 0 0 1 33.863-122.158l.814-.563 2.97-1.95a31 31 0 0 1 1.74-1.025l102.165-57.646a30.669 30.669 0 0 1 2.504-1.234l1.024-.512a99.584 99.584 0 0 1 40.71-8.463 103.757 103.757 0 0 1 76.881 33.31 150.118 150.118 0 0 0 35.804 28.079 23.352 23.352 0 0 0 21.74.153 148.08 148.08 0 0 0 36.47-29 103.695 103.695 0 0 1 77.342-33.822 99.635 99.635 0 0 1 40.003 8.192l.921.414 3.118 1.48q.86.435 1.69.927l105.887 59.284a28.56 28.56 0 0 1 2.452 1.536l1.024.717a100.68 100.68 0 0 1 34.018 122.46c0 .051-1.127 2.821-2.356 7.02a49.92 49.92 0 0 0-2.503 13.02 54.676 54.676 0 0 0 54.067 55.08h4.244c42.358 0 76.887 32.544 85.94 80.963a525.312 525.312 0 0 1 9.461 90.486v.057a534.374 534.374 0 0 1-9.415 90.506zm-49.465-173.921c-2.964-15.832-12.636-34.35-30.008-34.35h-4.27A113.961 113.961 0 0 1 765.742 279.74a106.225 106.225 0 0 1 4.94-29.696 133.402 133.402 0 0 1 4.947-14.12 43.873 43.873 0 0 0-14.152-52.409l-.261-.153-.205-.154-106.742-59.336-.204-.153-.261-.108a47.78 47.78 0 0 0-52.02 11.73c-16.696 18.366-57.267 53.135-91.545 53.135-13.824 0-31.058-6.225-49.664-18.007a213.09 213.09 0 0 1-41.206-34.12 47.78 47.78 0 0 0-52.173-11.314l-.256.102-.21.154-102.994 57.943-.21.107-.26.205a43.996 43.996 0 0 0-14.101 52.408 142.474 142.474 0 0 1 4.94 14.121 105.626 105.626 0 0 1 4.941 29.696 113.987 113.987 0 0 1-113.5 114.176H141.2c-17.27.103-26.89 18.576-29.854 34.35a466.432 466.432 0 0 0-8.587 80.896 466.867 466.867 0 0 0 8.587 80.953c2.964 15.825 12.585 34.35 29.906 34.35h4.352a113.961 113.961 0 0 1 113.449 114.176 105.395 105.395 0 0 1-4.941 29.696 117.028 117.028 0 0 1-4.941 14.11 43.843 43.843 0 0 0 14.203 52.414l.26.153.262.16 108.544 60.082.256.108.312.102a48.712 48.712 0 0 0 52.02-11.156c16.384-17.331 56.227-50.023 89.466-50.023 32.978 0 72.617 32.067 88.945 49.04a48.794 48.794 0 0 0 52.178 10.793l.21-.103.256-.158 104.863-58.686.26-.159.21-.153a43.94 43.94 0 0 0 14.147-52.414 142.188 142.188 0 0 1-4.992-14.11 107.33 107.33 0 0 1-4.89-29.696 113.981 113.981 0 0 1 113.496-114.176h4.787c10.614 0 24.658-8.976 29.445-34.35h.046a478.674 478.674 0 0 0 8.586-80.896 466.652 466.652 0 0 0-8.576-80.983zM709.586 571.116a23.951 23.951 0 0 1-1.024 8.75 189.583 189.583 0 0 1-73.073 95.38 185.856 185.856 0 0 1-107.284 34.033 189.486 189.486 0 0 1-178.52-128.845 24.151 24.151 0 0 1-1.023-7.598 192.123 192.123 0 0 1 4.372-124.216 24.095 24.095 0 0 1 1.398-6.825A188.928 188.928 0 0 1 528.2 325.305a185.344 185.344 0 0 1 79.047 17.663 189.297 189.297 0 0 1 96.548 98.996 23.941 23.941 0 0 1 1.536 8.386 194.412 194.412 0 0 1 4.255 120.75zM529.72 374.134a142.94 142.94 0 1 0 68.29 267.899 144.61 144.61 0 0 0-26.843-261.576 140.99 140.99 0 0 0-41.447-6.339z"/></svg>