<svg class="icon" viewBox="0 0 1024 1024" xmlns="http://www.w3.org/2000/svg" width="32" height="32"><defs><style/></defs><path d="M260.655 67.49v51.2h-6.982c-18.618 0-37.237 0-55.855 2.328-46.545 4.655-83.782 44.218-86.109 93.091v628.364c0 20.945 2.327 39.563 11.636 58.182 23.273 48.872 62.837 74.472 116.364 74.472h546.91c58.181 0 104.726-32.582 121.017-86.109 4.655-13.963 6.982-27.927 6.982-41.89V225.744c0-46.545-25.6-83.781-67.49-97.745-11.637-4.655-23.273-4.655-34.91-4.655h-48.873V74.473c51.2-6.982 100.073-6.982 144.291 27.927 34.91 27.927 53.528 62.836 55.855 107.055v633.018c0 55.854-18.618 102.4-60.51 137.309-32.581 30.254-72.145 41.89-116.363 44.218H239.71c-76.8 0-130.327-37.236-162.909-104.727C65.164 896 62.836 872.727 62.836 847.127V225.745c0-58.181 25.6-102.4 76.8-132.654 11.637-13.964 27.928-18.618 46.546-20.946 23.273-2.327 48.873-2.327 74.473-4.654z"/><path d="M372.364 0h276.945v46.545H532.945v46.546h93.091v46.545H393.31V93.091H486.4V46.545H370.036c2.328-16.29 2.328-30.254 2.328-46.545zm-97.746 365.382V323.49s2.327-2.327 4.655-2.327h474.763v46.545c-162.909-2.327-321.163-2.327-479.418-2.327zm0 158.254v-44.218H751.71v44.218H274.62zM749.382 640v44.218H272.29V640h477.09z"/></svg>