<svg class="icon" viewBox="0 0 1024 1024" xmlns="http://www.w3.org/2000/svg" width="64" height="64"><defs><style/></defs><path d="M896.022 255.957H607.898c-17.718 0-31.995-14.277-31.995-31.995 0-17.717 14.277-31.994 31.995-31.994h287.951c17.718 0 31.995 14.277 31.995 31.994.172 17.718-14.105 31.995-31.822 31.995zm0 159.973H607.898c-17.718 0-31.995-14.277-31.995-31.995s14.277-31.994 31.995-31.994h287.951c17.718 0 31.995 14.277 31.995 31.994s-14.105 31.995-31.822 31.995zm0 256.13H607.898c-17.718 0-31.995-14.278-31.995-31.995s14.277-31.995 31.995-31.995h287.951c17.718 0 31.995 14.277 31.995 31.995s-14.105 31.994-31.822 31.994zm0 159.972H607.898c-17.718 0-31.995-14.277-31.995-31.994s14.277-31.995 31.995-31.995h287.951c17.718 0 31.995 14.277 31.995 31.995s-14.105 31.994-31.822 31.994zM383.935 479.92H191.968c-52.98 0-95.984-43.003-95.984-95.984V191.968c0-52.98 43.003-95.984 95.984-95.984h191.967c52.98 0 95.984 43.003 95.984 95.984v191.967c0 52.98-43.003 95.984-95.984 95.984zM191.968 159.973c-17.546 0-31.995 14.45-31.995 31.995v191.967c0 17.546 14.45 31.995 31.995 31.995h191.967c17.546 0 31.995-14.45 31.995-31.995V191.968c0-17.546-14.45-31.995-31.995-31.995H191.968zm191.967 768.043H191.968c-52.98 0-95.984-43.003-95.984-95.984v-192.14c0-52.98 43.003-95.983 95.984-95.983h191.967c52.98 0 95.984 43.003 95.984 95.983V831.86c0 52.98-43.003 96.156-95.984 96.156zM191.968 607.898c-17.546 0-31.995 14.277-31.995 31.994V831.86c0 17.718 14.45 31.995 31.995 31.995h191.967c17.546 0 31.995-14.277 31.995-31.995V639.892c0-17.717-14.45-31.994-31.995-31.994H191.968z"/></svg>