<svg class="icon" viewBox="0 0 1024 1024" xmlns="http://www.w3.org/2000/svg" width="128" height="128"><defs><style/></defs><path d="M885.9 352v532.7H139.2V139h634.7V63.8H120.4C89.3 63.8 64 89.1 64 120.2v783.3c0 31.1 25.3 56.4 56.4 56.4h784.3c31.1 0 56.4-25.3 56.4-56.4V352h-75.2zm0 0"/><path d="M773.6 541.7c8.3-8.3 12.8-19.3 12.8-30.9 0-11.7-4.6-22.7-12.8-30.9-8.3-8.3-19.3-12.8-30.9-12.8H555V279.3c0-11.7-4.6-22.7-12.8-30.9-8.3-8.3-19.3-12.8-30.9-12.8-11.7 0-22.7 4.6-30.9 12.8-8.3 8.3-12.8 19.3-12.8 30.9v187.8H279.7c-11.7 0-22.7 4.6-30.9 12.8-8.3 8.3-12.8 19.3-12.8 30.9 0 11.7 4.6 22.7 12.8 30.9 8.3 8.3 19.3 12.8 30.9 12.8h187.8v187.8c0 24.1 19.6 43.8 43.8 43.8 11.7 0 22.7-4.6 30.9-12.8 8.3-8.3 12.8-19.3 12.8-30.9V554.6h187.8c11.6 0 22.6-4.6 30.8-12.9zm0 0"/></svg>