<svg class="icon" viewBox="0 0 1025 1024" xmlns="http://www.w3.org/2000/svg" width="128.125" height="128"><defs><style/></defs><path d="M959.725 0h-420.9c-17.1 0-33.4 6.8-45.5 18.8l-474.5 474.5c-25.1 25.1-25.1 65.8 0 91l420.9 420.9c12.6 12.6 29 18.8 45.5 18.8s32.9-6.3 45.5-18.8l474.5-474.5c12.1-12.1 18.8-28.4 18.8-45.5V64.3c0-35.5-28.8-64.3-64.3-64.3zm.3 485.2c0 .1 0 .2-.1.2l-474.5 474.5-.1.1h-.2l-.1-.1L64.125 539l-.1-.1v-.3l.1-.1 474.5-474.4c.1-.1.1-.1.2-.1h421c.1 0 .2.2.2.2v421z"/><path d="M704.025 192c-70.7 0-128 57.3-128 128s57.3 128 128 128 128-57.3 128-128-57.3-128-128-128zm0 192c-35.3 0-64-28.7-64-64s28.7-64 64-64 64 28.7 64 64-28.7 64-64 64z"/></svg>