<svg class="icon" viewBox="0 0 1024 1024" xmlns="http://www.w3.org/2000/svg" width="128" height="128"><defs><style/></defs><path d="M512 0C229.23 0 0 229.23 0 512s229.23 512 512 512 512-229.23 512-512S794.77 0 512 0zm0 953.38C268.233 953.38 70.62 755.766 70.62 512S268.234 70.62 512 70.62 953.38 268.234 953.38 512 755.766 953.38 512 953.38zM317.793 512c0-29.252-23.713-52.966-52.965-52.966-29.252 0-52.966 23.714-52.966 52.966 0 29.252 23.714 52.966 52.966 52.966 29.252 0 52.965-23.714 52.965-52.966zm476.69 35.31c19.501 0 35.31-15.809 35.31-35.31 0-19.501-15.809-35.31-35.31-35.31H406.069c-19.501 0-35.31 15.809-35.31 35.31 0 19.501 15.809 35.31 35.31 35.31h388.414zm-476.69-211.862c0-29.252-23.713-52.965-52.965-52.965-29.252 0-52.966 23.713-52.966 52.965 0 29.252 23.714 52.966 52.966 52.966 29.252 0 52.965-23.714 52.965-52.966zm476.69 35.31c19.501 0 35.31-15.808 35.31-35.31 0-19.501-15.809-35.31-35.31-35.31H406.069c-19.501 0-35.31 15.809-35.31 35.31 0 19.502 15.809 35.31 35.31 35.31h388.414zm-476.69 317.794c0-29.252-23.713-52.966-52.965-52.966-29.252 0-52.966 23.714-52.966 52.966 0 29.252 23.714 52.965 52.966 52.965 29.252 0 52.965-23.713 52.965-52.965zm476.69 35.31c19.501 0 35.31-15.809 35.31-35.31 0-19.502-15.809-35.31-35.31-35.31H406.069c-19.501 0-35.31 15.808-35.31 35.31 0 19.501 15.809 35.31 35.31 35.31h388.414z"/></svg>