<?xml version="1.0" standalone="no"?><!DOCTYPE svg PUBLIC "-//W3C//DTD SVG 1.1//EN" "http://www.w3.org/Graphics/SVG/1.1/DTD/svg11.dtd"><svg t="1551661769719" class="icon" style="" viewBox="0 0 1024 1024" version="1.1" xmlns="http://www.w3.org/2000/svg" p-id="1559" xmlns:xlink="http://www.w3.org/1999/xlink" width="200" height="200"><defs><style type="text/css"></style></defs><path d="M695.633773 373.638854L958.328667 110.94396 957.05345 260.144458c0 12.752179 10.201743 22.953923 21.678704 22.953923H995.309988c12.752179 0 22.953923-7.651308 22.953922-20.403487l1.275218-221.88792v-11.476962c0-6.37609-1.275218-11.476961-5.100871-15.302615-3.825654-3.825654-8.926526-6.37609-15.302616-6.376089h-11.476961L767.045978 6.37609c-12.752179 0-22.953923 10.201743-22.953923 22.953922v15.302616c1.275218 14.027397 12.752179 22.953923 25.504358 22.953922h144.099627L652.276364 330.281445c-11.476961 11.476961-11.476961 31.880448 0 43.357409 12.752179 12.752179 31.880448 12.752179 43.357409 0zM327.095791 656.737235L65.676115 916.881694l1.275218-147.925281c0-12.752179-10.201743-22.953923-21.678705-22.953922H28.694795c-12.752179 0-22.953923 7.651308-22.953923 20.403487L4.465654 988.293898v11.476961c0 6.37609 1.275218 11.476961 5.100872 15.302615 3.825654 3.825654 8.926526 6.37609 15.302615 6.37609h11.476961l219.337485 1.275218c12.752179 0 22.953923-10.201743 22.953922-22.953923v-15.302615c-1.275218-14.027397-12.752179-22.953923-25.504358-22.953923H109.033524L370.4532 698.819427c11.476961-11.476961 11.476961-31.880448 0-43.35741-11.476961-11.476961-30.60523-11.476961-43.357409 1.275218m692.443337 331.556663V766.405978c0-12.752179-10.201743-20.403487-22.953923-20.403487h-15.302615c-12.752179 0-21.678705 10.201743-21.678705 22.953922V918.156912L695.633773 655.462017c-11.476961-11.476961-31.880448-11.476961-43.357409 0-11.476961 11.476961-11.476961 31.880448 0 43.35741l262.694894 261.419676H770.871631c-12.752179 0-24.229141 8.926526-25.504358 22.953923v15.302615c0 12.752179 10.201743 22.953923 22.953923 22.953923l219.337484-1.275218h11.476961c6.37609 0 11.476961-2.550436 15.302616-6.376089 3.825654-3.825654 5.100872-10.201743 5.100871-15.302616v-10.201743zM110.308742 68.861768h144.099627c12.752179 0 24.229141-8.926526 25.504358-22.953922V30.60523c0-12.752179-10.201743-22.953923-22.953923-22.953922L37.62132 8.926526H26.144359C19.768269 7.651308 13.392179 10.201743 9.566526 14.027397c-3.825654 3.825654-5.100872 10.201743-5.100872 16.577833v232.089664c0 12.752179 10.201743 19.128269 22.953923 20.403487h16.577833c12.752179 0 21.678705-10.201743 21.678705-22.953923V112.219178l261.419676 261.419676c11.476961 11.476961 30.60523 11.476961 43.357409 0 11.476961-11.476961 11.476961-31.880448 0-43.357409L110.308742 68.861768z m0 0" p-id="1560"></path></svg>