<svg class="icon" viewBox="0 0 1040 1024" xmlns="http://www.w3.org/2000/svg" width="54.844" height="54"><defs><style/></defs><path d="M984.104 326.757c-50.69-117.936-145.549-212.488-263.867-263 31.996-25.12 72.264-40.221 116.151-40.221 103.863 0 188.064 83.923 188.064 187.452.001 43.737-15.155 83.879-40.348 115.769zm-7.67 207.324c0 122.913-48.404 234.32-126.857 317.183l64.93 64.712c8.587 8.563 13.906 20.391 13.906 33.464 0 26.137-21.258 47.328-47.488 47.328-13.106 0-24.977-5.301-33.564-13.864l-69.75-69.513c-75.25 52.398-166.624 83.377-265.383 83.377-98.57 0-189.785-30.847-264.95-83.052l-69.258 69.03c-8.696 8.672-20.7 14.022-33.957 14.022-26.52 0-48.02-21.431-48.02-47.868 0-13.215 5.376-25.179 14.064-33.842l64.403-64.185C96.29 768.043 48.02 656.803 48.02 534.081c0-255.532 207.833-462.688 464.207-462.688 256.381 0 464.208 207.156 464.208 462.688zM512.229 167.119c-203.333 0-368.164 164.305-368.164 366.962 0 202.664 164.832 366.962 368.164 366.962 203.324 0 368.163-164.3 368.163-366.962 0-202.658-164.839-366.962-368.163-366.962zm192.086 414.825H512.228c-26.52 0-48.022-21.426-48.022-47.862V278.809c0-26.435 21.503-47.863 48.022-47.863 26.51 0 48.02 21.428 48.02 47.863v207.41h144.066c26.51 0 48.02 21.425 48.02 47.862s-21.51 47.863-48.02 47.863zM41.21 333.241C15.473 300.67-.001 259.668-.001 214.989 0 109.251 85.996 23.536 192.085 23.536c44.82 0 85.963 15.425 118.636 41.079C189.877 116.214 92.975 212.787 41.21 333.24z"/></svg>