<svg class="icon" viewBox="0 0 1024 1024" xmlns="http://www.w3.org/2000/svg" width="24" height="24"><defs><style/></defs><path d="M695.467 535.467h-153.6v-78.934h147.2V396.8H558.933l108.8-108.8-38.4-38.4L512 366.933 394.667 249.6l-38.4 38.4 108.8 108.8H334.933v59.733h147.2v78.934h-153.6v61.866h153.6V774.4h59.734V597.333h153.6z"/><path d="M870.4 936.533H153.6c-53.333 0-96-38.4-96-87.466V661.333c0-14.933 12.8-25.6 25.6-25.6 68.267 0 121.6-55.466 121.6-121.6 0-68.266-55.467-121.6-121.6-121.6-14.933 0-25.6-12.8-25.6-25.6V172.8c0-49.067 42.667-87.467 96-87.467h716.8c53.333 0 96 38.4 96 87.467v189.867c0 14.933-12.8 25.6-25.6 25.6-68.267 0-121.6 55.466-121.6 121.6 0 68.266 55.467 121.6 121.6 121.6 14.933 0 25.6 12.8 25.6 25.6v189.866c0 53.334-42.667 89.6-96 89.6zM110.933 684.8v166.4c0 19.2 19.2 34.133 42.667 34.133h716.8c23.467 0 42.667-14.933 42.667-34.133V684.8c-83.2-12.8-149.334-85.333-149.334-172.8s64-160 149.334-172.8V172.8c0-19.2-19.2-34.133-42.667-34.133H153.6c-23.467 0-42.667 14.933-42.667 34.133v166.4c83.2 12.8 149.334 85.333 149.334 172.8s-64 160-149.334 172.8z"/></svg>