<svg class="icon" viewBox="0 0 1031 1024" xmlns="http://www.w3.org/2000/svg" width="24.164" height="24"><defs><style/></defs><path d="M320 275.2v467.2l147.2-128c12.8 0 32-6.4 44.8-6.4s32 6.4 44.8 12.8l147.2 128V281.6H320z"/><path d="M889.6 0H134.4C57.6 0 0 57.6 0 134.4V896c0 70.4 57.6 128 134.4 128H896c70.4 0 134.4-57.6 134.4-134.4V134.4C1024 57.6 966.4 0 889.6 0zM768 742.4c0 38.4-32 64-64 64-12.8 0-32-6.4-44.8-19.2L512 672 364.8 793.6c-25.6 19.2-64 19.2-89.6 0-12.8-12.8-19.2-32-19.2-51.2V281.6c0-38.4 32-64 64-64h384c38.4 0 64 32 64 64v460.8z"/></svg>