<svg class="icon" viewBox="0 0 1024 1024" xmlns="http://www.w3.org/2000/svg" width="54" height="54"><defs><style/></defs><path d="M910.085 255.35c-.921 37.56-33.68 64.527-62.776 83.225-49.065 31.53-107.008 48.108-163.553 60.012-138.174 29.097-290.765 23.572-425.432-19.466-58.357-18.653-189.148-75.152-141.824-157.707 21.996-38.369 69.443-61.798 108.637-77.824 61.01-24.94 127.155-37.652 192.491-44.083 113.51-11.172 231.465-2.744 340.388 32.072 53.443 17.08 150.38 55.01 152.07 123.77.808 32.958 52.008 33.04 51.2 0-2.377-96.731-111.274-147.015-189.656-173.142C638.316 37.77 489.001 35.092 351.278 56.812 254.182 72.12 128.092 106.276 72.29 195.574c-50.437 80.711 17.992 157.66 86.298 196.29 68.03 38.472 147.732 56.832 224.573 66.637 93.835 11.976 188.503 10.117 281.913-4.613 73.81-11.638 149.6-33.516 212.93-74.22 43.587-28.011 81.956-70.041 83.287-124.318.804-33.04-50.396-32.958-51.205 0z"/><path d="M910.085 423.23c-1.433 56.796-74.506 91.822-118.881 110.013-89.001 36.52-187.52 48.358-283.029 48.809-95.913.456-193.505-13.507-283.038-48.81-44.457-17.52-117.453-53.667-118.882-110.013-.834-32.957-52.034-33.039-51.2 0 1.87 73.867 71.378 120.976 131.85 148.91 99.385 45.912 212.752 60.6 321.27 61.118 109.087.517 221.138-16.655 321.26-61.117 60.657-26.937 130.002-75.75 131.85-148.91.835-33.04-50.365-32.953-51.2 0z"/><path d="M910.085 594.627c-1.433 56.8-74.506 91.827-118.881 110.028-89.001 36.521-187.52 48.359-283.029 48.81-95.913.455-193.505-13.507-283.038-48.81-44.457-17.53-117.453-53.678-118.882-110.028-.834-32.958-52.034-33.035-51.2 0 1.87 73.87 71.378 120.985 131.85 148.925 99.385 45.911 212.752 60.6 321.27 61.117 109.087.518 221.138-16.655 321.26-61.117 60.657-26.936 130.002-75.766 131.85-148.925.835-33.035-50.365-32.958-51.2 0z"/><path d="M910.085 776.07c-1.433 56.8-74.506 91.826-118.881 110.028-89.001 36.52-187.52 48.358-283.029 48.809-95.913.456-193.505-13.507-283.038-48.81-44.457-17.53-117.453-53.677-118.882-110.028-.834-32.957-52.034-33.034-51.2 0 1.87 73.871 71.378 120.986 131.85 148.92 99.385 45.917 212.752 60.606 321.27 61.123 109.087.517 221.138-16.655 321.26-61.123 60.657-26.93 130.002-75.76 131.85-148.92.835-33.034-50.365-32.952-51.2 0zM386.237 151.69l102.2 102.195c9.867 9.862 26.343 9.862 36.204 0l103.496-103.49c23.368-23.363-12.836-59.571-36.198-36.204l-103.501 103.49h36.203l-102.2-102.194c-23.368-23.368-59.566 12.836-36.204 36.203z"/><path d="M388.992 261.386h235.453c33.014 0 33.014-51.2 0-51.2H388.992c-33.019 0-33.019 51.2 0 51.2zm0 74.02h235.453c33.014 0 33.014-51.2 0-51.2H388.992c-33.019 0-33.019 51.2 0 51.2z"/><path d="M481.116 234.49V375.5c0 33.02 51.205 33.02 51.205 0V234.49c0-33.013-51.205-33.013-51.205 0z"/></svg>