<svg class="icon" viewBox="0 0 1024 1024" xmlns="http://www.w3.org/2000/svg" width="128" height="128"><defs><style/></defs><path d="M512 1024C229.248 1024 0 794.752 0 512S229.248 0 512 0s512 229.248 512 512-229.248 512-512 512zm0-938.667C276.352 85.333 85.333 276.352 85.333 512S276.352 938.667 512 938.667 938.667 747.648 938.667 512 747.648 85.333 512 85.333zm0 768a340.65 340.65 0 0 1-266.24-128 340.65 340.65 0 0 1 266.24-128 340.48 340.48 0 0 1 266.197 128 340.48 340.48 0 0 1-266.197 128zm0-298.666a170.667 170.667 0 1 1 0-341.334 170.667 170.667 0 0 1 0 341.334z"/></svg>