<svg class="icon" viewBox="0 0 1024 1024" xmlns="http://www.w3.org/2000/svg" width="128" height="128"><defs><style/></defs><path d="M955.092 763.263V661.036L885.57 649.43a169.371 169.371 0 0 0-2.012-4.845l40.981-57.364-72.292-72.295-57.38 40.951a169.482 169.482 0 0 0-4.834-2.001l-11.606-69.505H676.202l-11.606 69.52a168.204 168.204 0 0 0-4.865 2.016l-57.343-40.986-15.317 15.317a374.506 374.506 0 0 0-24.503-9.17c17.087-10.036 33.017-22.307 47.399-36.69 44.33-44.329 68.743-103.27 68.743-165.964 0-62.695-24.413-121.636-68.743-165.966-44.329-44.33-103.27-68.744-165.965-68.744-62.695 0-121.637 24.413-165.966 68.744-44.33 44.33-68.744 103.271-68.744 165.966 0 62.695 24.413 121.635 68.744 165.965 14.388 14.388 30.321 26.662 47.416 36.7a373.59 373.59 0 0 0-27.077 10.23c-44.552 18.844-84.557 45.815-118.907 80.166-34.35 34.348-61.32 74.355-80.164 118.906-19.515 46.139-29.41 95.134-29.41 145.627h51.224c0-.243.008-.486.01-.73h447.158l34.094 34.095 57.377-40.945c1.613.699 3.227 1.368 4.838 2.006l11.607 69.495h102.224l11.605-69.518a166.94 166.94 0 0 0 4.87-2.021l57.34 40.962 72.3-72.299L883.54 779.7c.701-1.614 1.374-3.23 2.016-4.85l69.537-11.586zM260.516 318.412c0-101.174 82.312-183.486 183.486-183.486 101.173 0 183.485 82.312 183.485 183.486 0 101.173-82.312 183.484-183.485 183.484-101.175 0-183.486-82.31-183.486-183.484zm278.875 505.64H125.317c24.923-153.425 158.33-270.934 318.685-270.934 35.588 0 70.209 5.661 103.324 16.865l-17.238 17.238 40.989 57.37a169.004 169.004 0 0 0-2.005 4.839l-69.537 11.605V763.26l69.53 11.61c.646 1.63 1.315 3.244 2.006 4.842l-31.68 44.34zm316.23 7.29l-9.088 9.081-47.446-33.837-14.564 8.17a116.434 116.434 0 0 1-25.115 10.37l-16.076 4.566-9.592 57.466h-12.85l-9.575-57.482-16.139-4.516c-8.56-2.4-17.007-5.902-25.092-10.403l-14.593-8.14-47.398 33.842-9.087-9.086 33.891-47.432-8.193-14.648a114.561 114.561 0 0 1-10.37-25.073l-4.563-16.078-57.468-9.572v-12.85l57.416-9.586 4.626-16.118c2.43-8.65 5.921-17.084 10.39-25.092l8.124-14.613-33.855-47.386 9.088-9.088 47.419 33.863 14.628-8.157a115.16 115.16 0 0 1 25.063-10.388l16.114-4.524 9.573-57.493h12.85l9.597 57.466 16.096 4.524c8.613 2.43 17.06 5.94 25.147 10.453l14.578 8.078 47.376-33.823 9.088 9.09-33.898 47.439 8.19 14.598a116.42 116.42 0 0 1 10.405 25.126l4.57 16.042 57.433 9.59v12.844l-57.47 9.55-4.573 16.158c-2.397 8.57-5.889 17.002-10.38 25.06l-8.136 14.595 33.859 47.413zM727.31 627.964c-46.417 0-84.181 37.764-84.181 84.183 0 46.42 37.763 84.187 84.181 84.187 46.42 0 84.185-37.765 84.185-84.187 0-46.418-37.765-84.183-84.185-84.183zm0 115.099c-17.045 0-30.913-13.87-30.913-30.916s13.868-30.915 30.913-30.915c17.048 0 30.916 13.87 30.916 30.915s-13.868 30.916-30.916 30.916z"/></svg>